<svg height="28" viewBox="0 0 791.02 154.97" width="144" xmlns="http://www.w3.org/2000/svg"><title>Goodbox Logo</title><g data-name="Layer 2" id="Layer_2"><g data-name="Layer 1" id="Layer_1-2"><path d="M65.53,153.48.58,116l-.15-.1a.68.68,0,0,1-.12-.12.69.69,0,0,1-.11-.13,1.09,1.09,0,0,1-.08-.15.77.77,0,0,1-.07-.16.85.85,0,0,1,0-.17A.91.91,0,0,1,0,115V40a1,1,0,0,1,0-.17,1,1,0,0,1,0-.17,1.11,1.11,0,0,1,.07-.16,1.09,1.09,0,0,1,.08-.15.69.69,0,0,1,.11-.13.74.74,0,0,1,.13-.12A.71.71,0,0,1,.58,39l65-37.5.16-.07.16,0h.52l.16,0,.16.07,65,37.51a1.19,1.19,0,0,1,.15.09l.12.12.11.13a1.09,1.09,0,0,1,.08.15l.07.16c0,.06,0,.12,0,.17s0,.12,0,.17V76.52a1.27,1.27,0,0,1-.05.34,1,1,0,0,1-.15.31,1.09,1.09,0,0,1-.23.25,1.05,1.05,0,0,1-.29.17,1.86,1.86,0,0,1-.34.06,1.3,1.3,0,0,1-.34,0,1.21,1.21,0,0,1-.32-.11L113.05,67.32l-.15-.1-.13-.12a1.13,1.13,0,0,1-.1-.13.51.51,0,0,1-.09-.16.77.77,0,0,1-.07-.16.85.85,0,0,1,0-.17,1,1,0,0,1,0-.17V50.89L66.12,24,19.93,50.63l-.15,53.42L66.12,131l40-23.07-40-23.42L52,92.49a.8.8,0,0,1-.16.08l-.16,0-.17,0h-.34l-.17,0-.15-.08L33.4,82.39a1.13,1.13,0,0,1-.27-.22,1.07,1.07,0,0,1-.19-.28,1,1,0,0,1-.1-.33,1,1,0,0,1,0-.35,1,1,0,0,1,.1-.33,1.38,1.38,0,0,1,.19-.28,1.18,1.18,0,0,1,.28-.22L65.54,62l.16-.07.17,0,.17,0h.34l.16.05.16.07,65,37.85.15.1.12.12a.69.69,0,0,1,.11.13,1.09,1.09,0,0,1,.08.15,1.11,1.11,0,0,1,.07.16,1,1,0,0,1,0,.17.88.88,0,0,1,0,.17V115a.88.88,0,0,1,0,.17.86.86,0,0,1,0,.17.77.77,0,0,1-.07.16,1.09,1.09,0,0,1-.08.15.69.69,0,0,1-.11.13l-.12.12-.15.1-65,37.51-.16.07-.17.05-.17,0H66l-.18,0-.16-.05Z"></path><polygon points="791.02 35.61 762.33 75.51 791.02 115.4 769.42 115.4 751.46 90.51 733.49 115.4 711.89 115.4 740.74 75.51 711.89 35.61 733.49 35.61 751.46 60.51 769.42 35.61 791.02 35.61"></polygon><path d="M711.7,70.19a46,46,0,0,0-.88-5.23,43.17,43.17,0,0,0-3.57-10,41.85,41.85,0,0,0-2.7-4.57,37.61,37.61,0,0,0-3.27-4.18,36.89,36.89,0,0,0-3.8-3.7,35.52,35.52,0,0,0-4.27-3.14,37.45,37.45,0,0,0-4.66-2.53,40.11,40.11,0,0,0-5-1.88,41.58,41.58,0,0,0-5.16-1.22,44.61,44.61,0,0,0-5.28-.57,47.61,47.61,0,0,0-10.57.65,45,45,0,0,0-5.15,1.26,42,42,0,0,0-5,1.91,39.12,39.12,0,0,0-8.92,5.69,40.21,40.21,0,0,0-3.79,3.71,36.71,36.71,0,0,0-3.27,4.18,41.77,41.77,0,0,0-2.69,4.57A43.51,43.51,0,0,0,631.71,60a45.62,45.62,0,0,0-1.47,5.1,48.78,48.78,0,0,0-.88,5.23,52.12,52.12,0,0,0-.28,5.3,49.39,49.39,0,0,0,.28,5.3,46,46,0,0,0,.87,5.23,43.08,43.08,0,0,0,1.48,5.1,41,41,0,0,0,2.09,4.87,40.39,40.39,0,0,0,2.71,4.57,38.5,38.5,0,0,0,3.3,4.15,39.07,39.07,0,0,0,3.83,3.67,38.42,38.42,0,0,0,4.3,3.1,39.56,39.56,0,0,0,4.68,2.49,42.42,42.42,0,0,0,5,1.85,44,44,0,0,0,5.17,1.21,46.94,46.94,0,0,0,5.27.59,49.5,49.5,0,0,0,5.31,0,44.46,44.46,0,0,0,5.27-.58,41.16,41.16,0,0,0,5.16-1.22,38.59,38.59,0,0,0,13.92-7.52,37.92,37.92,0,0,0,3.8-3.7,38.77,38.77,0,0,0,3.25-4.19A40.21,40.21,0,0,0,707.41,96a41.12,41.12,0,0,0,2.06-4.89,45.47,45.47,0,0,0,1.44-5.1,49.25,49.25,0,0,0,.84-5.24,52.1,52.1,0,0,0,.26-5.3A49.42,49.42,0,0,0,711.7,70.19Zm-18,8.53a28.23,28.23,0,0,1-.46,3,27.16,27.16,0,0,1-.8,2.94,23.23,23.23,0,0,1-1.14,2.83,21.64,21.64,0,0,1-1.48,2.67A21.9,21.9,0,0,1,688,92.63a21,21,0,0,1-2.14,2.18,21.5,21.5,0,0,1-2.41,1.86,22.17,22.17,0,0,1-5.5,2.62,23.25,23.25,0,0,1-3,.73,25.79,25.79,0,0,1-3,.35,28.19,28.19,0,0,1-3.05,0,25.59,25.59,0,0,1-3-.38,23.37,23.37,0,0,1-3-.76,22.36,22.36,0,0,1-2.83-1.15,21.47,21.47,0,0,1-5-3.4,22,22,0,0,1-2.13-2.19,24.23,24.23,0,0,1-1.8-2.46,24.8,24.8,0,0,1-1.46-2.68,25.77,25.77,0,0,1-1.12-2.84,27.2,27.2,0,0,1-.77-2.95,28.17,28.17,0,0,1-.44-3c-.1-1-.14-2-.14-3s.07-2,.18-3a27.75,27.75,0,0,1,.49-3,26.8,26.8,0,0,1,2-5.77,25.85,25.85,0,0,1,1.5-2.66,23.9,23.9,0,0,1,1.82-2.45,23.06,23.06,0,0,1,2.13-2.18,21.83,21.83,0,0,1,2.4-1.88,22.1,22.1,0,0,1,5.46-2.68,21.79,21.79,0,0,1,3-.76,23.65,23.65,0,0,1,3-.37,25.86,25.86,0,0,1,3.05,0,23.68,23.68,0,0,1,3,.39,23.26,23.26,0,0,1,2.95.77A22.27,22.27,0,0,1,681,53a21.08,21.08,0,0,1,2.63,1.55,23.17,23.17,0,0,1,2.39,1.9,22,22,0,0,1,2.1,2.22,22.74,22.74,0,0,1,1.78,2.47,23.18,23.18,0,0,1,1.46,2.68,23.93,23.93,0,0,1,1.12,2.84,26.68,26.68,0,0,1,.79,3,27.67,27.67,0,0,1,.46,3c.1,1,.15,2,.15,3S693.82,77.71,693.72,78.72Z"></path><path d="M619.87,73.52c0-1.32-.15-2.64-.3-4s-.34-2.62-.59-3.92-.56-2.58-.91-3.85-.76-2.53-1.22-3.77-1-2.46-1.55-3.65-1.19-2.36-1.86-3.49-1.41-2.24-2.19-3.3a38.27,38.27,0,0,0-5.32-5.86,34.84,34.84,0,0,0-3.1-2.46,33.47,33.47,0,0,0-3.35-2.1,34.58,34.58,0,0,0-3.59-1.7,32.37,32.37,0,0,0-3.75-1.26,33.71,33.71,0,0,0-3.87-.83,37.25,37.25,0,0,0-3.94-.38c-1.32,0-2.64,0-4,0s-2.64.22-3.94.43a36,36,0,0,0-3.87.84,35.12,35.12,0,0,0-3.74,1.29,33.47,33.47,0,0,0-3.56,1.74A34.35,34.35,0,0,0,562,39.52a32,32,0,0,0-3,2.57A33.59,33.59,0,0,0,556.27,45V0h-18V115.4h18v-9.56a32.09,32.09,0,0,0,5.64,5.53,30,30,0,0,0,3.31,2.18,29.29,29.29,0,0,0,3.56,1.74,32.92,32.92,0,0,0,3.74,1.27,34.34,34.34,0,0,0,3.88.83c1.3.21,2.62.34,3.94.42s2.64.09,4,0a34.76,34.76,0,0,0,3.94-.37,34.23,34.23,0,0,0,3.88-.8,33.74,33.74,0,0,0,3.76-1.24,31.6,31.6,0,0,0,3.59-1.67,33.61,33.61,0,0,0,3.38-2.07,34.87,34.87,0,0,0,3.11-2.45,37.57,37.57,0,0,0,5.34-5.83,36.28,36.28,0,0,0,2.19-3.3c.68-1.13,1.3-2.3,1.87-3.49s1.08-2.41,1.53-3.65.86-2.5,1.22-3.77.64-2.56.89-3.86.44-2.61.58-3.92.24-2.63.29-4S619.92,74.84,619.87,73.52Zm-18.08,5a27.27,27.27,0,0,1-.44,3,26.64,26.64,0,0,1-.76,2.92,24.08,24.08,0,0,1-1.08,2.82,23.4,23.4,0,0,1-1.43,2.66,22.33,22.33,0,0,1-1.76,2.45,20.49,20.49,0,0,1-2.08,2.19,21.38,21.38,0,0,1-2.36,1.88A23.36,23.36,0,0,1,589.27,98a21.28,21.28,0,0,1-2.8,1.13,22.32,22.32,0,0,1-2.92.75,25.06,25.06,0,0,1-3,.36,25.18,25.18,0,0,1-6-.36,22.36,22.36,0,0,1-2.92-.76,20.59,20.59,0,0,1-2.8-1.15,21.74,21.74,0,0,1-2.59-1.53,21.47,21.47,0,0,1-2.36-1.89,22.2,22.2,0,0,1-3.81-4.67,26,26,0,0,1-1.41-2.66,26.74,26.74,0,0,1-1.07-2.82,25.18,25.18,0,0,1-.75-2.93c-.19-1-.34-2-.43-3s-.14-2-.13-3,.05-2,.15-3,.24-2,.44-3a29.88,29.88,0,0,1,.77-2.92,27.17,27.17,0,0,1,1.08-2.81A24.35,24.35,0,0,1,560.13,61a22.45,22.45,0,0,1,1.76-2.46,21.38,21.38,0,0,1,2.06-2.2,22.34,22.34,0,0,1,2.35-1.89,21.94,21.94,0,0,1,2.6-1.54,21.25,21.25,0,0,1,2.79-1.15,20.84,20.84,0,0,1,2.92-.75,23.19,23.19,0,0,1,3-.37,25.37,25.37,0,0,1,3,0,23.28,23.28,0,0,1,3,.38,22.86,22.86,0,0,1,2.92.78,21.43,21.43,0,0,1,5.37,2.72,21.36,21.36,0,0,1,2.35,1.89,23.94,23.94,0,0,1,2.06,2.21,22.36,22.36,0,0,1,1.75,2.46,23.34,23.34,0,0,1,1.42,2.66,24,24,0,0,1,1.09,2.81,26.85,26.85,0,0,1,.77,2.93,29.72,29.72,0,0,1,.44,3c.1,1,.15,2,.15,3S601.89,77.52,601.79,78.52Z"></path><path d="M505.39,0V45a34.05,34.05,0,0,0-5.68-5.49,34.21,34.21,0,0,0-3.3-2.18,31.51,31.51,0,0,0-3.55-1.74,33.08,33.08,0,0,0-3.74-1.3,36.36,36.36,0,0,0-3.86-.84,38.07,38.07,0,0,0-11.82-.06,33.71,33.71,0,0,0-3.87.83,33.13,33.13,0,0,0-3.75,1.28,34.19,34.19,0,0,0-3.57,1.69,34.89,34.89,0,0,0-3.35,2.1,33.46,33.46,0,0,0-3.1,2.46,37.52,37.52,0,0,0-5.33,5.84c-.78,1.06-1.52,2.15-2.2,3.28s-1.3,2.3-1.87,3.49-1.09,2.4-1.55,3.64-.88,2.49-1.24,3.76-.66,2.55-.91,3.85-.46,2.59-.61,3.91-.25,2.62-.3,3.94-.05,2.64,0,4,.15,2.63.29,3.94.34,2.62.59,3.92.54,2.58.89,3.85.76,2.53,1.21,3.77,1,2.45,1.54,3.64,1.19,2.36,1.87,3.49a37.57,37.57,0,0,0,2.19,3.29,38.48,38.48,0,0,0,2.51,3.06,36.24,36.24,0,0,0,5.93,5.22,34.23,34.23,0,0,0,6.94,3.76,35.89,35.89,0,0,0,3.75,1.26,36,36,0,0,0,7.81,1.21c1.32.06,2.64,0,4,0s2.63-.2,3.93-.4a34.13,34.13,0,0,0,3.87-.82,32,32,0,0,0,7.31-3,31.45,31.45,0,0,0,3.32-2.16,30.61,30.61,0,0,0,3-2.55,35.12,35.12,0,0,0,2.68-2.91v9.39h18.13V0Zm-.14,78.52c-.1,1-.24,2-.43,3a29.77,29.77,0,0,1-.75,2.92A25.93,25.93,0,0,1,503,87.25a22.68,22.68,0,0,1-1.41,2.67,21,21,0,0,1-1.74,2.46,20.4,20.4,0,0,1-2.06,2.2,22.24,22.24,0,0,1-2.35,1.88,20.77,20.77,0,0,1-5.4,2.66,22.7,22.7,0,0,1-2.92.74,25.29,25.29,0,0,1-6,.32,25.17,25.17,0,0,1-3-.37,22.78,22.78,0,0,1-2.92-.76,21,21,0,0,1-5.39-2.67,21.27,21.27,0,0,1-2.35-1.88,20.5,20.5,0,0,1-2.06-2.21,22.73,22.73,0,0,1-3.14-5.13,24,24,0,0,1-1.07-2.82,29.21,29.21,0,0,1-.74-2.93,29.67,29.67,0,0,1-.42-3c-.09-1-.14-2-.13-3s.05-2,.15-3a29.72,29.72,0,0,1,.44-3,29.15,29.15,0,0,1,.77-2.92,23.32,23.32,0,0,1,1.09-2.81A21.86,21.86,0,0,1,463.76,61a21.1,21.1,0,0,1,1.75-2.46,21.34,21.34,0,0,1,2.06-2.19,21.13,21.13,0,0,1,2.35-1.89,21.94,21.94,0,0,1,2.6-1.54,21.25,21.25,0,0,1,2.79-1.15,22,22,0,0,1,2.92-.76,24.68,24.68,0,0,1,3-.38,25.19,25.19,0,0,1,3,0,21.55,21.55,0,0,1,3,.36,22.63,22.63,0,0,1,2.91.76,21.3,21.3,0,0,1,2.79,1.16,19.81,19.81,0,0,1,2.58,1.55,20.51,20.51,0,0,1,2.34,1.91,22.54,22.54,0,0,1,2,2.21,24.9,24.9,0,0,1,1.72,2.48,24.21,24.21,0,0,1,1.4,2.67,28.12,28.12,0,0,1,1.06,2.82,29.21,29.21,0,0,1,.74,2.93c.19,1,.33,2,.43,3s.14,2,.14,3S505.34,77.52,505.25,78.52Z"></path><path d="M432.27,70.19a46,46,0,0,0-.88-5.23,45.06,45.06,0,0,0-1.48-5.1,43.58,43.58,0,0,0-2.1-4.87,39.76,39.76,0,0,0-5.95-8.75,37.92,37.92,0,0,0-3.8-3.7,36.45,36.45,0,0,0-4.28-3.14,37.45,37.45,0,0,0-4.66-2.53,38.57,38.57,0,0,0-5-1.88A41.58,41.58,0,0,0,399,33.77a44.61,44.61,0,0,0-5.28-.57,47.61,47.61,0,0,0-10.57.65A45.49,45.49,0,0,0,378,35.11,39.53,39.53,0,0,0,373.05,37a38.87,38.87,0,0,0-4.66,2.54,39.81,39.81,0,0,0-4.27,3.15,40.21,40.21,0,0,0-3.79,3.71,39.11,39.11,0,0,0-3.27,4.18,41.77,41.77,0,0,0-2.69,4.57,43.78,43.78,0,0,0-3.56,10,46.38,46.38,0,0,0-.87,5.23,49.42,49.42,0,0,0,0,10.6,46,46,0,0,0,.87,5.23,43.08,43.08,0,0,0,1.48,5.1,40.89,40.89,0,0,0,4.8,9.44,39.68,39.68,0,0,0,3.29,4.15,39.12,39.12,0,0,0,3.84,3.67,38.42,38.42,0,0,0,4.3,3.1,39.56,39.56,0,0,0,4.68,2.49,41.91,41.91,0,0,0,5,1.85,43.42,43.42,0,0,0,5.16,1.21,46.68,46.68,0,0,0,5.27.59,49.5,49.5,0,0,0,5.31,0,44.23,44.23,0,0,0,5.27-.58,41.73,41.73,0,0,0,5.17-1.22,39,39,0,0,0,9.63-4.38,38.53,38.53,0,0,0,4.28-3.14,37.92,37.92,0,0,0,3.8-3.7,38.77,38.77,0,0,0,3.25-4.19A39.37,39.37,0,0,0,428,96,42.85,42.85,0,0,0,430,91.13a45.47,45.47,0,0,0,1.44-5.1,46.83,46.83,0,0,0,.84-5.24,49.36,49.36,0,0,0,.25-5.3A47,47,0,0,0,432.27,70.19Zm-18,8.53a28.23,28.23,0,0,1-.46,3,27.16,27.16,0,0,1-.8,2.94,24.9,24.9,0,0,1-1.13,2.83,23.1,23.1,0,0,1-1.49,2.67,22.63,22.63,0,0,1-4,4.63,21.54,21.54,0,0,1-5.08,3.36,22.33,22.33,0,0,1-2.84,1.12,21.68,21.68,0,0,1-3,.73,25.79,25.79,0,0,1-3,.35,28.19,28.19,0,0,1-3.05,0,25.59,25.59,0,0,1-3-.38,23.37,23.37,0,0,1-3-.76,23,23,0,0,1-2.83-1.15,21.47,21.47,0,0,1-5-3.4,20.87,20.87,0,0,1-2.12-2.19A22.89,22.89,0,0,1,371.71,90a24.8,24.8,0,0,1-1.46-2.68,25.77,25.77,0,0,1-1.12-2.84,27.2,27.2,0,0,1-.77-2.95,30.68,30.68,0,0,1-.4-9.12,27.75,27.75,0,0,1,.49-3,26.8,26.8,0,0,1,2-5.77,25.85,25.85,0,0,1,1.5-2.66,23.9,23.9,0,0,1,1.82-2.45,23.06,23.06,0,0,1,2.13-2.18,21.83,21.83,0,0,1,2.4-1.88,22.37,22.37,0,0,1,2.64-1.53,21.77,21.77,0,0,1,2.83-1.15,21.28,21.28,0,0,1,2.95-.76,23.65,23.65,0,0,1,3-.37,25.86,25.86,0,0,1,3,0,23.68,23.68,0,0,1,3,.39,22.83,22.83,0,0,1,2.95.77A22.4,22.4,0,0,1,401.57,53a21,21,0,0,1,2.62,1.55,21.61,21.61,0,0,1,4.49,4.12,24.27,24.27,0,0,1,1.79,2.47,23.11,23.11,0,0,1,1.45,2.68A23.93,23.93,0,0,1,413,66.66a24.65,24.65,0,0,1,.79,3,27.67,27.67,0,0,1,.46,3c.1,1,.15,2,.15,3S414.39,77.71,414.29,78.72Z"></path><path d="M340.17,70.19a48.36,48.36,0,0,0-.88-5.23,45.11,45.11,0,0,0-1.49-5.1A41.74,41.74,0,0,0,335.71,55,38.8,38.8,0,0,0,333,50.42,39.36,39.36,0,0,0,326,42.54a36.34,36.34,0,0,0-4.27-3.14A37.45,37.45,0,0,0,317,36.87a38.57,38.57,0,0,0-5-1.88,41.31,41.31,0,0,0-5.17-1.22,44.22,44.22,0,0,0-5.27-.57,47.51,47.51,0,0,0-10.57.65,45.14,45.14,0,0,0-5.16,1.26A40.14,40.14,0,0,0,280.94,37a38.74,38.74,0,0,0-12.72,9.4A37.78,37.78,0,0,0,265,50.6a40.23,40.23,0,0,0-2.69,4.57A43.51,43.51,0,0,0,260.18,60a45.62,45.62,0,0,0-1.47,5.1,48.78,48.78,0,0,0-.88,5.23,50.3,50.3,0,0,0,0,10.6,46,46,0,0,0,.87,5.23,45,45,0,0,0,1.47,5.1,42,42,0,0,0,2.1,4.87,40.39,40.39,0,0,0,2.71,4.57,39.68,39.68,0,0,0,3.29,4.15,38,38,0,0,0,3.84,3.67,37.52,37.52,0,0,0,4.3,3.1,39.56,39.56,0,0,0,4.68,2.49,42.42,42.42,0,0,0,5,1.85,43.57,43.57,0,0,0,5.17,1.21,46.42,46.42,0,0,0,5.27.59,49.5,49.5,0,0,0,5.31,0,44.69,44.69,0,0,0,5.27-.58,41.58,41.58,0,0,0,5.16-1.22,38.84,38.84,0,0,0,9.64-4.38,38.41,38.41,0,0,0,4.27-3.14,37.92,37.92,0,0,0,3.8-3.7,38.85,38.85,0,0,0,3.26-4.19A39.37,39.37,0,0,0,335.88,96a42.85,42.85,0,0,0,2.06-4.89,45.47,45.47,0,0,0,1.44-5.1,49.12,49.12,0,0,0,1.09-10.54A47,47,0,0,0,340.17,70.19Zm-18,8.53c-.1,1-.26,2-.46,3a27.16,27.16,0,0,1-.8,2.94,24.79,24.79,0,0,1-2.62,5.5,22.27,22.27,0,0,1-4,4.63,20.73,20.73,0,0,1-2.42,1.86,21.88,21.88,0,0,1-5.49,2.62,21.68,21.68,0,0,1-3,.73,25.71,25.71,0,0,1-3,.35,28.23,28.23,0,0,1-3.05,0,25.69,25.69,0,0,1-3-.38,23.37,23.37,0,0,1-3-.76,22.36,22.36,0,0,1-2.83-1.15,21,21,0,0,1-2.64-1.52,21.94,21.94,0,0,1-2.41-1.88,23.1,23.1,0,0,1-2.12-2.19,24.23,24.23,0,0,1-1.8-2.46,24.8,24.8,0,0,1-1.46-2.68A25.77,25.77,0,0,1,277,84.49a27.2,27.2,0,0,1-.77-2.95,28.2,28.2,0,0,1-.45-3c-.09-1-.13-2-.13-3s.07-2,.18-3a27.75,27.75,0,0,1,.49-3,26.8,26.8,0,0,1,2-5.77A25.76,25.76,0,0,1,279.81,61a25.47,25.47,0,0,1,1.82-2.45,23.06,23.06,0,0,1,2.13-2.18,21.94,21.94,0,0,1,2.41-1.88,21.59,21.59,0,0,1,2.64-1.53,22.23,22.23,0,0,1,2.82-1.15,21.79,21.79,0,0,1,3-.76,23.65,23.65,0,0,1,3-.37,25.86,25.86,0,0,1,3.05,0,24,24,0,0,1,6,1.16A22.27,22.27,0,0,1,309.46,53a21.08,21.08,0,0,1,2.63,1.55,23,23,0,0,1,2.38,1.9,22,22,0,0,1,2.1,2.22,22.83,22.83,0,0,1,1.79,2.47,24.8,24.8,0,0,1,1.46,2.68,25.77,25.77,0,0,1,1.12,2.84,26.68,26.68,0,0,1,.79,3,27.67,27.67,0,0,1,.46,3c.1,1,.15,2,.15,3S322.29,77.71,322.19,78.72Z"></path><path d="M230.3,35.61v9.23a31.56,31.56,0,0,0-2.56-2.74A30.19,30.19,0,0,0,211.16,34c-1.24-.17-2.49-.28-3.74-.33s-2.5,0-3.75.05-2.49.21-3.73.4a35.06,35.06,0,0,0-3.66.79,37.22,37.22,0,0,0-3.57,1.17c-1.16.46-2.31,1-3.42,1.55a37.51,37.51,0,0,0-3.23,1.91,34.38,34.38,0,0,0-3,2.24c-1,.8-1.88,1.66-2.76,2.55s-1.7,1.84-2.48,2.81-1.51,2-2.19,3.05-1.3,2.14-1.88,3.25-1.1,2.24-1.58,3.4-.89,2.34-1.26,3.54-.68,2.4-.94,3.63-.47,2.46-.63,3.7-.27,2.49-.32,3.74-.07,2.5,0,3.75.13,2.5.28,3.74.33,2.48.58,3.71.55,2.44.91,3.64.76,2.38,1.22,3.54,1,2.31,1.55,3.42a37.54,37.54,0,0,0,1.88,3.25c.68,1,1.41,2.07,2.19,3a36.62,36.62,0,0,0,2.49,2.8,34.9,34.9,0,0,0,2.77,2.53,36.78,36.78,0,0,0,3,2.22,35.93,35.93,0,0,0,3.24,1.88c1.12.56,2.26,1.07,3.43,1.52a37.16,37.16,0,0,0,3.57,1.16c1.21.32,2.43.58,3.67.78s2.48.34,3.72.42,2.51.11,3.76.08a36,36,0,0,0,3.74-.3,31.2,31.2,0,0,0,7.26-1.84,29,29,0,0,0,9.44-6,31.68,31.68,0,0,0,2.57-2.74v10.61c0,.59,0,1.17,0,1.76s0,1.18-.08,1.77-.09,1.18-.16,1.76-.15,1.17-.25,1.75-.21,1.16-.34,1.73-.28,1.15-.45,1.71-.35,1.13-.55,1.68-.43,1.1-.67,1.64-.5,1.06-.78,1.58-.59,1-.91,1.52-.66,1-1,1.44-.75.91-1.15,1.34-.82.85-1.26,1.25-.89.77-1.36,1.12-1,.69-1.46,1-1,.6-1.54.86-1.06.51-1.61.73-1.1.42-1.66.59-1.14.33-1.71.46-1.15.24-1.74.33-1.16.16-1.75.21-1.18.07-1.77.09-1.17,0-1.76,0-1.18-.07-1.76-.13-1.17-.16-1.75-.27-1.16-.24-1.72-.39-1.14-.34-1.69-.54-1.1-.43-1.63-.68a16.8,16.8,0,0,1-1.56-.84,17.06,17.06,0,0,1-1.47-1,16.17,16.17,0,0,1-1.36-1.12,16.38,16.38,0,0,1-1.25-1.25c-.39-.44-.76-.9-1.11-1.37s-.68-1-1-1.48-.57-1-.83-1.56-.48-1.07-.69-1.62-.38-1.12-.54-1.68-.29-1.15-.41-1.72-.2-1.16-.27-1.75-.12-1.17-.15-1.76,0-1.18,0-1.77l-17.64,2.48a38.08,38.08,0,0,0,.14,4.27,33.34,33.34,0,0,0,.65,4.22,32.66,32.66,0,0,0,1.18,4.11,30.9,30.9,0,0,0,1.74,3.9,28.82,28.82,0,0,0,2.26,3.62,30.81,30.81,0,0,0,2.75,3.28,31.84,31.84,0,0,0,3.17,2.86,33.74,33.74,0,0,0,3.51,2.43,36,36,0,0,0,3.79,2,40,40,0,0,0,4,1.55c1.35.44,2.73.81,4.12,1.12s2.8.55,4.22.72,2.83.29,4.26.34,2.85.06,4.27,0,2.85-.19,4.26-.38a42.53,42.53,0,0,0,4.2-.78,41.89,41.89,0,0,0,4.11-1.18,40,40,0,0,0,4-1.61,37.79,37.79,0,0,0,3.76-2A37.28,37.28,0,0,0,241.85,137a37.74,37.74,0,0,0,2.08-3.73,41.06,41.06,0,0,0,1.68-3.93c.49-1.34.92-2.7,1.28-4.08s.65-2.78.88-4.18.4-2.83.51-4.25.14-2.85.15-4.27,0-2.85,0-4.28V35.61Zm0,39.29a26.1,26.1,0,0,1-.28,2.79,25.66,25.66,0,0,1-.58,2.74,24.3,24.3,0,0,1-.9,2.65,20.9,20.9,0,0,1-1.22,2.52A21.51,21.51,0,0,1,225.75,88a20.44,20.44,0,0,1-1.84,2.11,19.45,19.45,0,0,1-2.11,1.84,18.81,18.81,0,0,1-2.34,1.53,20.22,20.22,0,0,1-2.54,1.19,20.67,20.67,0,0,1-2.67.84,23.31,23.31,0,0,1-2.75.5c-.93.1-1.87.15-2.8.16a23.89,23.89,0,0,1-2.8-.16,23.39,23.39,0,0,1-2.76-.47,23,23,0,0,1-2.68-.82,20.37,20.37,0,0,1-4.9-2.68,20.44,20.44,0,0,1-2.11-1.84A21.72,21.72,0,0,1,191.61,88a20.05,20.05,0,0,1-1.52-2.35,21,21,0,0,1-1.21-2.53,22.24,22.24,0,0,1-.88-2.65,23.58,23.58,0,0,1-.58-2.75c-.14-.92-.23-1.85-.28-2.78s0-1.87,0-2.8.14-1.87.28-2.79a25.62,25.62,0,0,1,.57-2.74,25.15,25.15,0,0,1,.89-2.66,23.4,23.4,0,0,1,1.2-2.53,22.51,22.51,0,0,1,1.53-2.35A21.55,21.55,0,0,1,193.43,57a19.34,19.34,0,0,1,2.1-1.84,20.13,20.13,0,0,1,2.35-1.53,21.73,21.73,0,0,1,2.54-1.19,22.31,22.31,0,0,1,2.67-.83,21.55,21.55,0,0,1,2.76-.49,26,26,0,0,1,2.79-.17,23.77,23.77,0,0,1,2.8.16,21.53,21.53,0,0,1,2.76.48,20.67,20.67,0,0,1,2.67.84,20.13,20.13,0,0,1,4.89,2.7A20.44,20.44,0,0,1,223.87,57a20.75,20.75,0,0,1,3.38,4.45,21,21,0,0,1,1.23,2.52,24.3,24.3,0,0,1,.9,2.65,23.29,23.29,0,0,1,.59,2.73,27.07,27.07,0,0,1,.29,5.59Z"></path></g></g></svg>