<svg xmlns:dc="http://purl.org/dc/elements/1.1/" xmlns:cc="http://creativecommons.org/ns#" xmlns:rdf="http://www.w3.org/1999/02/22-rdf-syntax-ns#" xmlns:svg="http://www.w3.org/2000/svg" xmlns="http://www.w3.org/2000/svg" viewBox="0 0 563.88 173.58667" height="173.58667" width="563.88" xml:space="preserve" id="svg2" version="1.1" xmlns:xlink="http://www.w3.org/1999/xlink">
 <metadata id="metadata8">
  <rdf:RDF>
   <cc:Work rdf:about="">
    <dc:format>
     image/svg+xml
    </dc:format>
    <dc:type rdf:resource="http://purl.org/dc/dcmitype/StillImage">
    </dc:type>
   </cc:Work>
  </rdf:RDF>
 </metadata>
 <defs id="defs6">
 </defs>
 <g transform="matrix(1.3333333,0,0,-1.3333333,0,173.58667)" id="g10">
  <g transform="scale(0.1)" id="g12">
   <path id="path14" style="fill:#100f0d;fill-opacity:1;fill-rule:nonzero;stroke:none" d="m 3320.67,450.395 -22,-136.231 c -34.11,-18.453 -97.92,-45.004 -171.66,-45.004 -125.42,0 -150.73,66.942 -130.93,208.942 L 3028,706.664 h -61.72 l 17.46,147.945 67.36,3.262 25.31,107.363 190.34,71.566 -24.2,-178.929 h 130.95 c -4.42,-18.469 -19.82,-120.039 -24.21,-151.207 h -127.64 l -28.61,-211.25 c -7.71,-54.254 -3.29,-73.883 34.1,-73.883 27.52,0 68.23,16.16 93.53,28.864 z m -988.43,232.023 c 14.31,98.129 6.59,187 -102.32,187 -79.21,0 -165.04,-66.949 -225.56,-178.922 13.19,92.356 5.5,178.922 -102.33,178.922 -81.42,0 -169.45,-70.414 -229.95,-187 15.39,76.184 12.09,162.762 7.69,181.242 -62.71,-10.414 -117.72,-16.164 -194.75,-18.48 2.2,-53.106 -1.11,-122.364 -11.01,-188.153 l -25.3,-173.164 c -9.9,-68.097 -20.9,-146.625 -31.91,-196.242 h 204.66 c 1.09,30.016 8.79,77.344 14.3,118.91 l 17.6,118.879 c 14.31,77.36 75.93,168.539 123.24,168.539 27.51,0 26.4,-26.547 18.71,-76.187 L 1775.5,483.863 c -9.9,-68.097 -20.91,-146.625 -31.91,-196.242 h 206.85 c 1.1,30.016 7.7,77.344 13.21,118.91 l 17.6,118.879 c 14.31,77.36 75.92,168.539 123.23,168.539 27.52,0 26.41,-25.375 22,-60.023 L 2077.1,287.621 h 188.77 z m 1598,-61.824 c 0,-194.145 -137.12,-355.535 -318.83,-355.535 -162.76,0 -246.35,111.109 -246.35,256.132 0,192.957 138.22,354.364 318.83,354.364 164.97,0 246.35,-111.102 246.35,-254.961 z m -367.12,-95.59 c 0,-70.426 23.09,-106.211 62.71,-106.211 52.82,0 94.62,85.41 94.62,189.316 0,71.575 -23.11,106.204 -61.62,106.204 -52.81,0 -95.71,-84.27 -95.71,-189.309 z M 1406.9,616.578 c 0,-191.613 -135.34,-350.918 -314.68,-350.918 -160.654,0 -243.177,109.66 -243.177,252.793 0,190.461 136.441,349.766 314.697,349.766 162.84,0 243.16,-109.664 243.16,-251.641 z m -359.8,-91.574 c 0,-70.426 23.11,-106.211 62.71,-106.211 52.83,0 94.63,85.41 94.63,189.316 0,71.575 -23.1,106.204 -61.61,106.204 -52.82,0 -95.73,-84.27 -95.73,-189.309 z M 852.348,854.418 849.043,749.363 575.078,451.531 c 114.426,0 187.039,1.18 228.86,3.469 -12.106,-56.562 -22.008,-102.738 -31.907,-171.969 -55.015,4.59 -140.847,5.739 -226.66,5.739 -95.726,0 -179.351,-1.149 -246.473,-5.739 l 2.207,106.168 273.973,296.684 c -119.941,0 -163.945,-1.156 -213.465,-2.313 11,53.09 18.711,111.973 26.414,170.848 86.922,-3.461 121.028,-4.613 234.368,-4.613 104.519,0 163.929,1.152 229.953,4.613">
   </path>
   <path id="path16" style="fill:#100f0d;fill-opacity:1;fill-rule:nonzero;stroke:none" d="m 2539.74,280.059 c -97.75,-12.008 -162.13,26.781 -181.47,115.082 -12.15,55.543 4.68,118.761 34.15,156.547 39.42,49.351 103.73,81.074 182.12,90.691 63.14,7.746 116.3,3.914 166.04,-5.5 l 2.06,8.539 c 1.41,13.625 2.83,27.262 0.84,43.59 -5.14,41.808 -38.17,66.742 -119.61,56.75 -54.98,-6.754 -107.32,-26.637 -147.95,-49.238 l -39.46,119.398 c 55,31.605 124.42,55.645 203.82,65.395 151.7,18.628 258.26,-29.754 271.91,-140.938 3.62,-29.59 4.07,-60.957 0.33,-89.355 -19.5,-137.504 -31.98,-240.938 -37.44,-310.329 -0.85,-10.695 -0.77,-29.128 0.19,-55.332 l -188.23,0.172 c 4,10.879 7.59,25.528 10.79,43.942 2.09,12.129 3.61,27.457 4.58,45.961 -39.82,-54.579 -94.46,-87.004 -162.67,-95.375 z m 59.02,105.554 c 69.24,8.5 116.91,75.309 128.38,141.942 l 1.92,17.851 c -29.75,6.692 -72.75,11.762 -114.49,6.633 -39.71,-4.883 -72.81,-21.367 -90.56,-45.293 -13.38,-17.156 -20.17,-37.668 -17.17,-62.137 4.52,-36.73 45.09,-64.742 91.92,-58.996">
   </path>
  </g>
 </g>
</svg>